<?xml version="1.0" standalone="no"?>
<!DOCTYPE svg PUBLIC "-//W3C//DTD SVG 20010904//EN"
 "http://www.w3.org/TR/2001/REC-SVG-20010904/DTD/svg10.dtd">
<svg version="1.0" xmlns="http://www.w3.org/2000/svg"
 width="410.000000pt" height="90.000000pt" viewBox="0 0 410.000000 90.000000"
 preserveAspectRatio="xMidYMid meet">

<g transform="translate(0.000000,90.000000) scale(0.100000,-0.100000)"
fill="#000000" stroke="none">
<path d="M425 648 c-14 -21 -14 -23 1 -26 9 -2 28 8 43 22 l26 26 -27 0 c-16
0 -33 -9 -43 -22z"/>
<path d="M884 595 c-4 -9 -2 -21 4 -27 16 -16 47 -5 47 17 0 26 -42 34 -51 10z"/>
<path d="M2564 595 c-4 -9 -2 -21 4 -27 16 -16 47 -5 47 17 0 26 -42 34 -51
10z"/>
<path d="M330 460 l0 -140 95 0 c88 0 95 1 95 20 0 18 -7 20 -70 20 l-70 0 0
45 0 45 60 0 c53 0 60 2 60 20 0 18 -7 20 -60 20 l-60 0 0 35 0 35 70 0 c63 0
70 2 70 20 0 19 -7 20 -95 20 l-95 0 0 -140z"/>
<path d="M2250 461 c0 -133 1 -141 20 -141 18 0 20 8 22 103 l3 102 15 -50
c21 -66 40 -65 62 5 l17 55 0 -107 1 -108 25 0 25 0 0 140 0 140 -35 0 c-33 0
-35 -2 -46 -45 -6 -25 -15 -45 -19 -45 -4 0 -11 19 -16 43 -8 38 -12 42 -41
45 l-33 3 0 -140z"/>
<path d="M618 558 c-2 -15 -11 -24 -25 -26 -33 -5 -31 -42 2 -42 24 0 25 -2
25 -68 0 -85 16 -105 81 -100 32 2 45 8 47 21 3 14 -4 17 -33 17 -41 0 -55 23
-55 91 0 39 0 39 40 39 33 0 40 3 40 19 0 16 -8 20 -37 23 -31 2 -39 7 -41 26
-2 14 -10 22 -22 22 -12 0 -20 -8 -22 -22z"/>
<path d="M820 510 c0 -16 7 -20 30 -20 l30 0 0 -65 0 -65 -30 0 c-23 0 -30 -4
-30 -20 0 -18 7 -20 85 -20 77 0 85 2 85 19 0 14 -8 21 -27 23 -28 3 -28 4
-31 86 l-3 82 -54 0 c-48 0 -55 -2 -55 -20z"/>
<path d="M1076 504 c-25 -25 -30 -47 -27 -104 3 -39 54 -80 99 -80 49 0 88 26
71 46 -8 10 -15 12 -23 4 -23 -23 -96 -4 -96 25 0 12 15 15 70 15 78 0 81 4
56 65 -26 61 -102 76 -150 29z m102 -26 c25 -25 13 -38 -33 -38 -30 0 -45 4
-45 13 0 33 53 50 78 25z"/>
<path d="M1290 425 c0 -105 0 -105 25 -105 24 0 24 2 27 83 l3 82 35 0 35 0 3
-82 c3 -81 3 -83 27 -83 25 0 25 1 25 88 0 73 -3 92 -18 105 -23 21 -75 22
-93 1 -11 -14 -13 -14 -21 0 -5 9 -18 16 -28 16 -19 0 -20 -8 -20 -105z"/>
<path d="M1530 425 c0 -105 0 -105 25 -105 24 0 24 2 27 83 l3 82 35 0 35 0 3
-82 c3 -81 3 -83 27 -83 25 0 25 1 25 88 0 73 -3 92 -18 105 -23 21 -75 22
-93 1 -11 -14 -13 -14 -21 0 -5 9 -18 16 -28 16 -19 0 -20 -8 -20 -105z"/>
<path d="M1796 504 c-25 -25 -30 -47 -27 -104 3 -39 54 -80 99 -80 49 0 88 26
71 46 -8 10 -15 12 -23 4 -23 -23 -96 -4 -96 25 0 12 15 15 70 15 78 0 81 4
56 65 -26 61 -102 76 -150 29z m102 -26 c25 -25 13 -38 -33 -38 -30 0 -45 4
-45 13 0 19 21 37 45 37 12 0 26 -5 33 -12z"/>
<path d="M2500 510 c0 -16 7 -20 30 -20 l30 0 0 -65 0 -65 -30 0 c-23 0 -30
-4 -30 -20 0 -18 7 -20 85 -20 77 0 85 2 85 19 0 14 -8 21 -27 23 -28 3 -28 4
-31 86 l-3 82 -54 0 c-48 0 -55 -2 -55 -20z"/>
<path d="M2730 425 c0 -105 0 -105 25 -105 24 0 24 2 27 83 l3 82 35 0 35 0 3
-82 c3 -81 3 -83 27 -83 25 0 25 1 25 88 0 73 -3 92 -18 105 -23 21 -75 22
-93 1 -11 -14 -13 -14 -21 0 -5 9 -18 16 -28 16 -19 0 -20 -8 -20 -105z"/>
<path d="M2996 504 c-25 -25 -30 -47 -27 -104 3 -39 54 -80 99 -80 49 0 88 26
71 46 -8 10 -15 12 -23 4 -23 -23 -96 -4 -96 25 0 12 15 15 70 15 78 0 81 4
56 65 -26 61 -102 76 -150 29z m102 -26 c25 -25 13 -38 -33 -38 -30 0 -45 4
-45 13 0 19 21 37 45 37 12 0 26 -5 33 -12z"/>
<path d="M3211 446 c3 -65 8 -89 23 -105 23 -25 63 -27 88 -5 16 16 18 16 24
0 3 -9 15 -16 25 -16 17 0 19 9 19 105 0 105 0 105 -25 105 -24 0 -24 -2 -27
-82 l-3 -83 -29 -3 c-39 -5 -46 10 -46 96 0 71 0 72 -26 72 l-26 0 3 -84z"/>
<path d="M3480 425 l0 -105 25 0 c24 0 25 2 25 68 0 78 9 92 61 92 31 0 37 4
41 25 5 22 2 25 -26 25 -17 0 -41 -7 -53 -15 -19 -13 -22 -13 -27 0 -3 8 -15
15 -26 15 -19 0 -20 -6 -20 -105z"/>
</g>
</svg>
