<svg xmlns="http://www.w3.org/2000/svg" xmlns:xlink="http://www.w3.org/1999/xlink" width="546.667" height="120" viewBox="0 0 410 90" preserveAspectRatio="xMidYMid meet" xmlns:v="https://vecta.io/nano"><path d="M42.5 25.2c-1.4 2.1-1.4 2.3.1 2.6.9.2 2.8-.8 4.3-2.2l2.6-2.6h-2.7c-1.6 0-3.3.9-4.3 2.2zm45.9 5.3c-.4.9-.2 2.1.4 2.7 1.6 1.6 4.7.5 4.7-1.7 0-2.6-4.2-3.4-5.1-1zm168 0c-.4.9-.2 2.1.4 2.7 1.6 1.6 4.7.5 4.7-1.7 0-2.6-4.2-3.4-5.1-1zM33 44v14h9.5c8.8 0 9.5-.1 9.5-2 0-1.8-.7-2-7-2h-7v-4.5V45h6c5.3 0 6-.2 6-2s-.7-2-6-2h-6v-3.5V34h7c6.3 0 7-.2 7-2 0-1.9-.7-2-9.5-2H33v14zm192-.1c0 13.3.1 14.1 2 14.1 1.8 0 2-.8 2.2-10.3l.3-10.2 1.5 5c2.1 6.6 4 6.5 6.2-.5l1.7-5.5v10.7L239 58h2.5 2.5V44 30h-3.5c-3.3 0-3.5.2-4.6 4.5-.6 2.5-1.5 4.5-1.9 4.5s-1.1-1.9-1.6-4.3c-.8-3.8-1.2-4.2-4.1-4.5l-3.3-.3v14zM61.8 34.2c-.2 1.5-1.1 2.4-2.5 2.6-3.3.5-3.1 4.2.2 4.2 2.4 0 2.5.2 2.5 6.8 0 8.5 1.6 10.5 8.1 10 3.2-.2 4.5-.8 4.7-2.1.3-1.4-.4-1.7-3.3-1.7-4.1 0-5.5-2.3-5.5-9.1 0-3.9 0-3.9 4-3.9 3.3 0 4-.3 4-1.9s-.8-2-3.7-2.3c-3.1-.2-3.9-.7-4.1-2.6-.2-1.4-1-2.2-2.2-2.2s-2 .8-2.2 2.2z"/><use xlink:href="#B"/><path d="M107.6 39.6c-2.5 2.5-3 4.7-2.7 10.4.3 3.9 5.4 8 9.9 8 4.9 0 8.8-2.6 7.1-4.6-.8-1-1.5-1.2-2.3-.4-2.3 2.3-9.6.4-9.6-2.5 0-1.2 1.5-1.5 7-1.5 7.8 0 8.1-.4 5.6-6.5-2.6-6.1-10.2-7.6-15-2.9zm10.2 2.6c2.5 2.5 1.3 3.8-3.3 3.8-3 0-4.5-.4-4.5-1.3 0-3.3 5.3-5 7.8-2.5z"/><use xlink:href="#C"/><use xlink:href="#C" x="24"/><use xlink:href="#D"/><use xlink:href="#B" x="168"/><use xlink:href="#C" x="144"/><use xlink:href="#D" x="120"/><path d="M321.1 45.4c.3 6.5.8 8.9 2.3 10.5 2.3 2.5 6.3 2.7 8.8.5 1.6-1.6 1.8-1.6 2.4 0 .3.9 1.5 1.6 2.5 1.6 1.7 0 1.9-.9 1.9-10.5 0-10.5 0-10.5-2.5-10.5-2.4 0-2.4.2-2.7 8.2l-.3 8.3-2.9.3c-3.9.5-4.6-1-4.6-9.6 0-7.1 0-7.2-2.6-7.2h-2.6l.3 8.4zm26.9 2.1V58h2.5c2.4 0 2.5-.2 2.5-6.8 0-7.8.9-9.2 6.1-9.2 3.1 0 3.7-.4 4.1-2.5.5-2.2.2-2.5-2.6-2.5-1.7 0-4.1.7-5.3 1.5-1.9 1.3-2.2 1.3-2.7 0-.3-.8-1.5-1.5-2.6-1.5-1.9 0-2 .6-2 10.5z"/><defs ><path id="B" d="M82 39c0 1.6.7 2 3 2h3v6.5V54h-3c-2.3 0-3 .4-3 2 0 1.8.7 2 8.5 2 7.7 0 8.5-.2 8.5-1.9 0-1.4-.8-2.1-2.7-2.3-2.8-.3-2.8-.4-3.1-8.6l-.3-8.2h-5.4c-4.8 0-5.5.2-5.5 2z"/><path id="C" d="M129 47.5c0 10.5 0 10.5 2.5 10.5 2.4 0 2.4-.2 2.7-8.3l.3-8.2h3.5 3.5l.3 8.2c.3 8.1.3 8.3 2.7 8.3 2.5 0 2.5-.1 2.5-8.8 0-7.3-.3-9.2-1.8-10.5-2.3-2.1-7.5-2.2-9.3-.1-1.1 1.4-1.3 1.4-2.1 0-.5-.9-1.8-1.6-2.8-1.6-1.9 0-2 .8-2 10.5z"/><path id="D" d="M179.6 39.6c-2.5 2.5-3 4.7-2.7 10.4.3 3.9 5.4 8 9.9 8 4.9 0 8.8-2.6 7.1-4.6-.8-1-1.5-1.2-2.3-.4-2.3 2.3-9.6.4-9.6-2.5 0-1.2 1.5-1.5 7-1.5 7.8 0 8.1-.4 5.6-6.5-2.6-6.1-10.2-7.6-15-2.9zm10.2 2.6c2.5 2.5 1.3 3.8-3.3 3.8-3 0-4.5-.4-4.5-1.3 0-1.9 2.1-3.7 4.5-3.7 1.2 0 2.6.5 3.3 1.2z"/></defs></svg>