<?xml version="1.0" encoding="UTF-8"?>
<svg overflow="visible" baseProfile="tiny" version="1.2" viewBox="0 0 1098.7 511.6" xml:space="preserve" xmlns="http://www.w3.org/2000/svg">
	<path d="m0 159.8c0-52.7 32.2-84.6 75.5-84.6 44.2 0 70.3 31.6 70.3 77.1 0 4.2-0.3 7.8-0.7 10.7h-129.2c1.3 42.3 25.7 67 61.2 67 25.1 0 43.6-11.4 53.4-30.6l13 7.5c-12 23.1-35.8 37.4-66 37.4-45 0.1-77.5-31.8-77.5-84.5zm16.3-11.4h113.6c-1-36.1-21.5-58.9-54.7-58.9-31.9 0-55 21.8-58.9 58.9zm91.7-148.4-30.2 51.4h-13.7l26.4-51.4h17.5z"/>
	<path d="m276.6 92.4h-60.8v105.7c0 20.5 10.1 31.2 28.6 31.2 12 0 21.1-4.2 28.6-12l6.2 13.3c-8.5 8.1-21.1 13.7-36.8 13.7-25.4 0-42.9-13.7-42.9-43.9v-108h-32.5v-14h32.5v-40.7l16.3-4.6v45.2h60.8v14.1z"/>
	<path d="m305.9 33.2c0-8.1 5.5-13.7 13.7-13.7 8.1 0 13.7 5.5 13.7 13.7s-5.5 13.7-13.7 13.7-13.7-5.6-13.7-13.7zm21.8 207.9h-16.3v-162.7h16.3v162.7z"/>
	<path d="m374.9 159.8c0-52.7 32.2-84.6 75.5-84.6 44.2 0 70.3 31.6 70.3 77.1 0 4.2-0.3 7.8-0.7 10.7h-129.2c1.3 42.3 25.7 67 61.2 67 25.1 0 43.6-11.4 53.4-30.6l13 7.5c-12 23.1-35.8 37.4-66.1 37.4-44.9 0.1-77.4-31.8-77.4-84.5zm16.3-11.4h113.6c-1-36.1-21.5-58.9-54.7-58.9-31.9 0-55 21.8-58.9 58.9z"/>
	<path d="m567.2 78.4h14.6l1 32.5c10.1-23.1 33.2-35.8 60.5-35.8 36.1 0 62.1 20.5 62.1 60.5v105.4h-16.3v-100.1c0-35.8-19.5-51.4-47.5-51.4-30.6 0-58.2 21.8-58.2 59.9v91.8h-16.3v-162.8z"/>
	<path d="m761.8 78.4h14.6l1 32.5c10.1-23.1 33.2-35.8 60.5-35.8 36.1 0 62.1 20.5 62.1 60.5v105.4h-16.3v-100.1c0-35.8-19.5-51.4-47.5-51.4-30.6 0-58.2 21.8-58.2 59.9v91.8h-16.3v-162.8z"/>
	<path d="m945.4 159.8c0-52.7 32.2-84.6 75.5-84.6 44.2 0 70.3 31.6 70.3 77.1 0 4.2-0.3 7.8-0.7 10.7h-129.2c1.3 42.3 25.7 67 61.2 67 25.1 0 43.6-11.4 53.4-30.6l13 7.5c-12 23.1-35.8 37.4-66.1 37.4-44.9 0.1-77.4-31.8-77.4-84.5zm16.2-11.4h113.6c-1-36.1-21.5-58.9-54.7-58.9-31.9 0-55 21.8-58.9 58.9z"/>
	<path d="m11.1 338.8h14.6l1 33.8c9.8-23.1 32.5-37.1 59.2-37.1 28 0 50.4 13.7 57.9 39.7 8.5-25.1 34.8-40 62.1-40 34.2 0 61.2 20.2 61.2 60.5v105.4h-16.3v-103.8c0-31.9-19.2-47.8-46.9-47.8-31.2 0-56.6 24.1-56.6 58.2v93.7h-16.3v-103.7c0-32.2-19.2-47.8-46.9-47.8-29.3 0-56.9 22.1-56.9 59.5v92.1h-16.1v-162.7z"/>
	<path d="m317.9 293.5c0-8.1 5.5-13.7 13.7-13.7 8.1 0 13.7 5.5 13.7 13.7 0 8.1-5.5 13.7-13.7 13.7-8.1 0-13.7-5.5-13.7-13.7zm21.8 207.9h-16.3v-162.6h16.3v162.6z"/>
	<path d="M398,338.8h14.6l1,32.5c10.1-23.1,33.2-35.8,60.5-35.8c36.1,0,62.1,20.5,62.1,60.5v105.4H520V401.2   c0-35.8-19.5-51.4-47.5-51.4c-30.6,0-58.2,21.8-58.2,59.9v91.8H398V338.8z"/>
	<path d="m581.5 420.1c0-52.7 32.2-84.6 75.5-84.6 44.2 0 70.3 31.6 70.3 77.1 0 4.2-0.3 7.8-0.7 10.7h-129.1c1.3 42.3 25.7 67 61.2 67 25.1 0 43.6-11.4 53.4-30.6l13 7.5c-12 23.1-35.8 37.4-66.1 37.4-44.9 0.1-77.5-31.8-77.5-84.5zm16.3-11.4h113.6c-1-36.1-21.5-58.9-54.7-58.9-31.9 0-55 21.8-58.9 58.9z"/>
	<path d="m772.2 446.1v-107.3h16.3v103.5c0 33.8 16.9 48.2 46.5 48.2 34.8 0 57.3-26.7 57.3-58.2v-93.4h16.3v162.7h-14.6l-0.7-33.5c-9.8 23.1-32.2 36.8-62.1 36.8-33.9-0.2-59-18.8-59-58.8z"/>
	<path d="m966.5 338.8h13.7l2 33.8c8.1-22.1 27-37.1 52.7-37.1 8.5 0 15.6 2 20.5 5.5l-3.9 14.3c-4.6-2.9-9.1-4.9-20.5-4.9-25.1 0-48.2 24.7-48.2 59.9v91.1h-16.3v-162.6z"/>
</svg>
